<svg width="252" height="46" viewBox="0 0 252 46" fill="none" xmlns="http://www.w3.org/2000/svg">
<path d="M0.972301 36V30.75L17.4723 8.72727H1.04048V1.09091H29.5405V6.34091L13.0405 28.3636H29.4723V36H0.972301ZM41.5959 36.4091C39.9254 36.4091 38.4482 36.1364 37.1641 35.5909C35.8913 35.0341 34.8913 34.1932 34.1641 33.0682C33.4368 31.9432 33.0732 30.5114 33.0732 28.7727C33.0732 27.3409 33.3175 26.1193 33.8061 25.108C34.2947 24.0852 34.9766 23.25 35.8516 22.6023C36.7266 21.9545 37.7436 21.4602 38.9027 21.1193C40.0732 20.7784 41.3345 20.5568 42.6868 20.4545C44.1527 20.3409 45.3288 20.2045 46.2152 20.0455C47.1129 19.875 47.7607 19.642 48.1584 19.3466C48.5561 19.0398 48.755 18.6364 48.755 18.1364V18.0682C48.755 17.3864 48.4936 16.8636 47.9709 16.5C47.4482 16.1364 46.7777 15.9545 45.9595 15.9545C45.0618 15.9545 44.3288 16.1534 43.7607 16.5511C43.2038 16.9375 42.8686 17.5341 42.755 18.3409H34.0959C34.2095 16.75 34.7152 15.2841 35.6129 13.9432C36.522 12.5909 37.8459 11.5114 39.5845 10.7045C41.3232 9.88636 43.4936 9.47727 46.0959 9.47727C47.9709 9.47727 49.6527 9.69886 51.1413 10.142C52.63 10.5739 53.897 11.1818 54.9425 11.9659C55.9879 12.7386 56.7834 13.6477 57.3288 14.6932C57.8857 15.7273 58.1641 16.8523 58.1641 18.0682V36H49.3686V32.3182H49.1641C48.6413 33.2955 48.005 34.0852 47.255 34.6875C46.5163 35.2898 45.6697 35.7273 44.7152 36C43.772 36.2727 42.7322 36.4091 41.5959 36.4091ZM44.6641 30.4773C45.38 30.4773 46.0504 30.3295 46.6754 30.0341C47.3118 29.7386 47.8288 29.3125 48.2266 28.7557C48.6243 28.1989 48.8232 27.5227 48.8232 26.7273V24.5455C48.5732 24.6477 48.3061 24.7443 48.022 24.8352C47.7493 24.9261 47.4538 25.0114 47.1357 25.0909C46.8288 25.1705 46.4993 25.2443 46.147 25.3125C45.8061 25.3807 45.4482 25.4432 45.0732 25.5C44.3459 25.6136 43.7493 25.8011 43.2834 26.0625C42.8288 26.3125 42.4879 26.625 42.2607 27C42.0447 27.3636 41.9368 27.7727 41.9368 28.2273C41.9368 28.9545 42.1925 29.5114 42.7038 29.8977C43.2152 30.2841 43.8686 30.4773 44.6641 30.4773ZM62.6598 45.8182V9.81818H72.0007V14.3864H72.2053C72.5462 13.5 73.0462 12.6875 73.7053 11.9489C74.3643 11.1989 75.1825 10.6023 76.1598 10.1591C77.1371 9.70455 78.2734 9.47727 79.5689 9.47727C81.2962 9.47727 82.9382 9.9375 84.495 10.858C86.0632 11.7784 87.3359 13.2273 88.3132 15.2045C89.3018 17.1818 89.7962 19.75 89.7962 22.9091C89.7962 25.9318 89.3246 28.4375 88.3814 30.4261C87.4496 32.4148 86.1996 33.8977 84.6314 34.875C83.0746 35.8523 81.3643 36.3409 79.5007 36.3409C78.2734 36.3409 77.1768 36.142 76.2109 35.7443C75.2564 35.3352 74.4382 34.7841 73.7564 34.0909C73.0859 33.3864 72.5689 32.5909 72.2053 31.7045H72.0689V45.8182H62.6598ZM71.8643 22.9091C71.8643 24.1818 72.0291 25.2841 72.3587 26.2159C72.6996 27.1364 73.1768 27.8523 73.7905 28.3636C74.4155 28.8636 75.1598 29.1136 76.0234 29.1136C76.8871 29.1136 77.62 28.8693 78.2223 28.3807C78.8359 27.8807 79.3018 27.1705 79.62 26.25C79.9496 25.3182 80.1143 24.2045 80.1143 22.9091C80.1143 21.6136 79.9496 20.5057 79.62 19.5852C79.3018 18.6534 78.8359 17.9432 78.2223 17.4545C77.62 16.9545 76.8871 16.7045 76.0234 16.7045C75.1598 16.7045 74.4155 16.9545 73.7905 17.4545C73.1768 17.9432 72.6996 18.6534 72.3587 19.5852C72.0291 20.5057 71.8643 21.6136 71.8643 22.9091ZM112.42 12C112.329 10.8636 111.903 9.97727 111.141 9.34091C110.391 8.70454 109.249 8.38636 107.715 8.38636C106.738 8.38636 105.937 8.50568 105.312 8.74432C104.698 8.97159 104.244 9.28409 103.948 9.68182C103.653 10.0795 103.499 10.5341 103.488 11.0455C103.465 11.4659 103.539 11.8466 103.71 12.1875C103.891 12.517 104.175 12.8182 104.562 13.0909C104.948 13.3523 105.442 13.5909 106.045 13.8068C106.647 14.0227 107.363 14.2159 108.192 14.3864L111.056 15C112.988 15.4091 114.641 15.9489 116.016 16.6193C117.391 17.2898 118.516 18.0795 119.391 18.9886C120.266 19.8864 120.908 20.8977 121.317 22.0227C121.738 23.1477 121.954 24.375 121.965 25.7045C121.954 28 121.38 29.9432 120.244 31.5341C119.107 33.125 117.482 34.3352 115.369 35.1648C113.266 35.9943 110.738 36.4091 107.783 36.4091C104.749 36.4091 102.102 35.9602 99.8402 35.0625C97.5902 34.1648 95.8402 32.7841 94.5902 30.9205C93.3516 29.0455 92.7266 26.6477 92.7152 23.7273H101.715C101.772 24.7955 102.039 25.6932 102.516 26.4205C102.994 27.1477 103.664 27.6989 104.528 28.0739C105.403 28.4489 106.442 28.6364 107.647 28.6364C108.658 28.6364 109.505 28.5114 110.187 28.2614C110.869 28.0114 111.386 27.6648 111.738 27.2216C112.09 26.7784 112.272 26.2727 112.283 25.7045C112.272 25.1705 112.096 24.7045 111.755 24.3068C111.425 23.8977 110.88 23.5341 110.119 23.2159C109.357 22.8864 108.329 22.5795 107.033 22.2955L103.556 21.5455C100.465 20.875 98.0277 19.7557 96.2436 18.1875C94.4709 16.608 93.5902 14.4545 93.6016 11.7273C93.5902 9.51136 94.1811 7.57386 95.3743 5.91477C96.5788 4.24432 98.2436 2.94318 100.369 2.01136C102.505 1.07954 104.954 0.613635 107.715 0.613635C110.533 0.613635 112.971 1.08523 115.028 2.02841C117.085 2.97159 118.67 4.30114 119.783 6.01705C120.908 7.72159 121.477 9.71591 121.488 12H112.42ZM138.252 36.4773C135.457 36.4773 133.048 35.9432 131.025 34.875C129.013 33.7955 127.462 32.25 126.371 30.2386C125.292 28.2159 124.752 25.7955 124.752 22.9773C124.752 20.2727 125.298 17.9091 126.388 15.8864C127.479 13.8636 129.019 12.2898 131.008 11.1648C132.996 10.0398 135.343 9.47727 138.048 9.47727C140.025 9.47727 141.815 9.78409 143.417 10.3977C145.019 11.0114 146.388 11.9034 147.525 13.0739C148.661 14.233 149.536 15.642 150.15 17.3011C150.763 18.9602 151.07 20.8295 151.07 22.9091V25.0909H127.684V19.9091H142.411C142.4 19.1591 142.207 18.5 141.832 17.9318C141.468 17.3523 140.974 16.9034 140.349 16.5852C139.735 16.2557 139.036 16.0909 138.252 16.0909C137.491 16.0909 136.792 16.2557 136.156 16.5852C135.519 16.9034 135.008 17.3466 134.621 17.9148C134.246 18.483 134.048 19.1477 134.025 19.9091V25.5C134.025 26.3409 134.201 27.0909 134.553 27.75C134.906 28.4091 135.411 28.9261 136.07 29.3011C136.729 29.6761 137.525 29.8636 138.457 29.8636C139.104 29.8636 139.695 29.7727 140.229 29.5909C140.775 29.4091 141.241 29.1477 141.627 28.8068C142.013 28.4545 142.298 28.0341 142.479 27.5455H151.07C150.775 29.3636 150.076 30.9432 148.974 32.2841C147.871 33.6136 146.411 34.6477 144.593 35.3864C142.786 36.1136 140.673 36.4773 138.252 36.4773ZM154.91 36V9.81818H164.046V14.7955H164.319C164.796 12.9545 165.552 11.608 166.586 10.7557C167.631 9.90341 168.853 9.47727 170.251 9.47727C170.66 9.47727 171.063 9.51136 171.461 9.57955C171.87 9.63636 172.262 9.72159 172.637 9.83523V17.8636C172.171 17.7045 171.597 17.5852 170.915 17.5057C170.234 17.4261 169.648 17.3864 169.16 17.3864C168.239 17.3864 167.41 17.5966 166.671 18.017C165.944 18.4261 165.37 19.0057 164.95 19.7557C164.529 20.4943 164.319 21.3636 164.319 22.3636V36H154.91ZM202.906 9.81818L194.11 36H183.201L174.406 9.81818H184.292L188.519 27.1364H188.792L193.019 9.81818H202.906ZM217.33 36.4773C214.535 36.4773 212.126 35.9432 210.103 34.875C208.092 33.7955 206.54 32.25 205.45 30.2386C204.37 28.2159 203.83 25.7955 203.83 22.9773C203.83 20.2727 204.376 17.9091 205.467 15.8864C206.558 13.8636 208.097 12.2898 210.086 11.1648C212.075 10.0398 214.421 9.47727 217.126 9.47727C219.103 9.47727 220.893 9.78409 222.495 10.3977C224.097 11.0114 225.467 11.9034 226.603 13.0739C227.739 14.233 228.614 15.642 229.228 17.3011C229.842 18.9602 230.148 20.8295 230.148 22.9091V25.0909H206.762V19.9091H221.489C221.478 19.1591 221.285 18.5 220.91 17.9318C220.546 17.3523 220.052 16.9034 219.427 16.5852C218.813 16.2557 218.114 16.0909 217.33 16.0909C216.569 16.0909 215.87 16.2557 215.234 16.5852C214.597 16.9034 214.086 17.3466 213.7 17.9148C213.325 18.483 213.126 19.1477 213.103 19.9091V25.5C213.103 26.3409 213.279 27.0909 213.631 27.75C213.984 28.4091 214.489 28.9261 215.148 29.3011C215.808 29.6761 216.603 29.8636 217.535 29.8636C218.183 29.8636 218.773 29.7727 219.308 29.5909C219.853 29.4091 220.319 29.1477 220.705 28.8068C221.092 28.4545 221.376 28.0341 221.558 27.5455H230.148C229.853 29.3636 229.154 30.9432 228.052 32.2841C226.95 33.6136 225.489 34.6477 223.671 35.3864C221.864 36.1136 219.751 36.4773 217.33 36.4773ZM233.988 36V9.81818H243.124V14.7955H243.397C243.874 12.9545 244.63 11.608 245.664 10.7557C246.71 9.90341 247.931 9.47727 249.329 9.47727C249.738 9.47727 250.141 9.51136 250.539 9.57955C250.948 9.63636 251.34 9.72159 251.715 9.83523V17.8636C251.249 17.7045 250.675 17.5852 249.994 17.5057C249.312 17.4261 248.727 17.3864 248.238 17.3864C247.317 17.3864 246.488 17.5966 245.749 18.017C245.022 18.4261 244.448 19.0057 244.028 19.7557C243.607 20.4943 243.397 21.3636 243.397 22.3636V36H233.988Z" fill="#29D53A"/>
</svg>
