<svg width="73" height="95" viewBox="0 0 73 95" fill="none" xmlns="http://www.w3.org/2000/svg">
<path fill-rule="evenodd" clip-rule="evenodd" d="M40.1059 4.98511C34.676 7.32374 27.1125 10.5564 23.2978 12.1688C15.1069 15.6307 14.5931 15.9809 15.1209 17.7415C15.564 19.2216 16.316 19.3084 19.0293 18.1935C22.7916 16.6471 26.9067 14.9359 30.9492 13.2361C33.1523 12.3094 36.5326 10.8927 38.4603 10.088C45.93 6.97029 48.1679 6.03301 49.5275 5.45321C50.3025 5.12246 50.9526 4.8723 50.972 4.89721C50.9914 4.92175 50.9768 8.03833 50.9391 11.8223L50.8713 18.7026L40.9103 22.6756C35.4316 24.8603 30.1441 26.9898 29.1607 27.4074C28.1769 27.8249 25.0545 29.0772 22.2214 30.1903C11.4878 34.4075 11.5292 34.3899 11.0392 34.8782C10.1843 35.7305 10.3725 37.2011 11.3911 37.623C11.8688 37.8208 11.8501 37.8263 15.8549 36.2803C17.2317 35.7484 19.5498 34.8763 21.0053 34.3423C22.4613 33.8079 25.7126 32.5894 28.2307 31.6338C30.7488 30.6785 33.8713 29.5054 35.1697 29.0267C36.4681 28.5483 39.035 27.5825 40.8736 26.8807C45.1443 25.2501 50.7043 23.1843 50.8211 23.1843C50.8709 23.1843 50.8944 25.5405 50.8739 28.4209L50.8361 33.6574L50.264 33.8438C49.6839 34.0328 45.2399 35.4463 42.7526 36.233C42.005 36.4696 39.8481 37.1663 37.9596 37.7812C36.0711 38.3962 33.2702 39.2972 31.7359 39.7833C27.1601 41.2333 24.705 42.0303 20.9365 43.2896C18.9707 43.9463 17.3507 44.4719 17.3361 44.4572C17.3214 44.4426 17.8562 43.6258 18.5242 42.6424C20.4307 39.8349 20.6893 39.039 19.9849 38.1438C19.3868 37.3831 19.2125 37.3999 16.4523 38.4801C15.0612 39.0243 13.1372 39.7624 12.1764 40.1202C8.73459 41.4014 7.90756 42.3761 8.84521 44.0441C9.41512 45.0579 9.78871 45.1132 11.5611 44.4462C13.1005 43.8668 13.0826 43.8034 11.9032 45.6589C10.4769 47.9023 10.3586 48.1855 10.5495 48.8938C10.7634 49.689 11.5362 50.3681 12.2266 50.3681C12.6442 50.3681 12.7211 50.4117 12.6467 50.6058C12.5244 50.9244 8.84484 56.9701 8.62691 57.2104C8.27199 57.6019 6.66151 53.3246 6.13371 50.5893C4.45583 41.8948 6.77688 33.438 12.9482 25.7595C15.0363 23.1616 15.1861 22.7532 14.4608 21.635C13.3891 19.982 11.7929 20.0758 10.0825 21.8921C-0.451809 33.0776 -2.18756 50.0926 5.94435 62.4579C8.5694 66.4495 12.6969 70.6616 15.5593 72.2702C15.879 72.4501 16.1409 72.6578 16.1409 72.7314C16.1409 72.8739 11.2329 80.3729 5.73411 88.6322C2.18387 93.9647 2.08717 94.1636 2.78271 94.7108C3.50866 95.2818 3.80204 95.1492 6.55492 93.0077C8.14343 91.7722 17.9254 84.4513 26.2481 78.2686C28.2901 76.7519 29.3449 76.0549 29.59 76.06C29.7867 76.0641 30.5913 76.1564 31.3781 76.2648C45.6666 78.2327 60.409 68.8727 65.0738 54.8706C66.0393 51.9716 65.4199 50.238 63.4149 50.2274C62.5106 50.2227 62.3286 50.3999 68.7562 45.0249C72.8372 41.6124 72.8372 41.6164 68.5643 40.2294L66.0023 39.3976L66.5341 39.2218C66.8264 39.1251 67.2289 38.8526 67.4281 38.6156L67.7907 38.1849V32.745C67.7907 25.8196 68.0131 26.395 64.898 25.264C62.2326 24.2967 61.3957 23.9319 61.6385 23.844C61.7565 23.8015 62.8274 23.4154 64.0182 22.9869C66.5246 22.0844 66.8758 21.9174 67.3615 21.398L67.719 21.0153L67.7629 15.1249C67.8094 8.91152 67.7724 8.46284 67.1677 7.89512C66.9798 7.71858 64.1944 6.39598 60.9774 4.95618C57.7605 3.51637 54.3882 1.99489 53.4832 1.57515C52.1115 0.938938 51.683 0.805249 50.9079 0.772285L49.978 0.732727L40.1059 4.98511ZM59.2061 9.20014L63.5699 10.9524L63.6058 15.1527C63.6252 17.4632 63.5929 19.5348 63.534 19.7568L63.4267 20.1604L62.2106 19.7337C61.5418 19.4993 60.4474 19.1224 59.7786 18.896C57.3953 18.0906 54.4626 17.0354 53.8348 16.7577L53.1971 16.4757V14.9169C53.1971 14.0598 53.2392 11.9039 53.2913 10.1264L53.385 6.89447L54.1139 7.17101C54.5146 7.32338 56.806 8.23612 59.2061 9.20014ZM55.9441 11.767C55.6112 12.0995 55.7247 13.8474 56.0943 14.0832C56.4686 14.322 60.7533 15.7443 61.0986 15.7443C61.7023 15.7443 61.9224 15.041 61.6389 14.0202C61.5034 13.5331 61.4316 13.4873 59.887 12.9002C59.001 12.564 57.8729 12.1325 57.3803 11.9417C56.3628 11.5479 56.1848 11.5263 55.9441 11.767ZM35.0983 14.1074C20.7706 20.0205 20.0062 20.3501 19.6534 20.7691C18.7429 21.8514 19.2571 23.4704 20.512 23.4704C20.9449 23.4704 25.1299 21.8383 29.3035 20.0421C30.4448 19.5509 32.3117 18.7752 33.453 18.318C35.9869 17.3031 41.1567 15.1216 41.7259 14.8271C43.0222 14.1569 42.6284 11.7289 41.2256 11.742C41.0033 11.7439 38.2456 12.8086 35.0983 14.1074ZM47.0808 15.7608C46.4442 16.1684 46.3801 17.2537 46.9837 17.4049C47.4295 17.517 48.5221 16.798 48.5909 16.3475C48.6902 15.6959 47.7514 15.3311 47.0808 15.7608ZM43.4276 17.1529C42.887 17.3896 42.8866 17.3903 42.9269 18.1767L42.9672 18.9634L43.5291 18.9184C44.6055 18.8319 44.8989 18.5649 44.8989 17.6719V16.8889L44.4338 16.9028C44.1781 16.9101 43.7254 17.0229 43.4276 17.1529ZM39.9268 18.5169L38.7467 18.9572V19.7828C38.7467 20.7563 38.8254 20.786 40.1363 20.3051C41.2172 19.9084 41.2007 19.9311 41.1505 18.9348L41.1073 18.077L39.9268 18.5169ZM63.1263 26.5448L63.6842 26.7825L63.5812 31.3125C63.5245 33.8039 63.4567 35.8638 63.4307 35.8902C63.4043 35.9162 62.9421 35.7993 62.4033 35.6305C61.8645 35.4613 60.3936 35.0126 59.1347 34.6335C57.8755 34.2541 56.0727 33.6926 55.1285 33.3853L53.4118 32.8267L53.374 28.0355L53.3363 23.2444L57.9524 24.7757C60.491 25.6182 62.8194 26.4141 63.1263 26.5448ZM25.4409 24.1978C25.0867 24.3586 23.1227 25.1695 21.0768 26.0002C16.5907 27.8213 16.0834 28.0802 15.7908 28.697C15.2055 29.9299 16.1241 31.3799 17.3232 31.1166C18.058 30.9551 26.5444 27.525 26.9847 27.2114C28.8633 25.8734 27.5209 23.2539 25.4409 24.1978ZM55.9441 27.9341C55.6467 28.2315 55.7255 29.8218 56.0522 30.1178C56.3339 30.3723 60.4434 31.6253 60.9979 31.6253C61.6887 31.6253 61.9469 30.0639 61.3481 29.5061C60.7159 28.9171 56.258 27.6202 55.9441 27.9341ZM44.6125 29.4526C44.6125 29.5164 44.2938 29.7079 43.9041 29.8782C43.5144 30.0482 43.1284 30.3137 43.0456 30.4679C42.868 30.8001 42.8449 31.6253 43.0134 31.6253C43.2295 31.6253 44.5389 31.1576 44.7198 31.0155C44.9334 30.8481 44.9656 29.3362 44.7557 29.3362C44.677 29.3362 44.6125 29.3885 44.6125 29.4526ZM39.6767 31.251C39.047 31.5103 38.1295 31.9271 37.6376 32.1769L36.7436 32.6311V33.2886C36.7436 34.0753 36.604 34.0867 39.2935 33.0868L41.1073 32.4125L41.1502 31.5898C41.2014 30.6082 41.2238 30.6137 39.6767 31.251ZM33.0952 33.8431C31.8275 34.4588 31.8063 34.4775 31.7253 35.0573C31.6143 35.8539 31.6887 35.8675 33.2435 35.3287L34.5976 34.8599V34.0295C34.5976 33.0479 34.7049 33.0611 33.0952 33.8431ZM55.086 38.1904C56.0537 38.4962 57.7147 38.9874 58.7769 39.2822C60.8968 39.8701 64.5694 40.8982 64.965 41.0143C65.3496 41.1271 65.2635 41.4443 64.7504 41.8047C64.4943 41.9842 62.2249 43.7708 59.7068 45.7747C57.1887 47.7785 54.5168 49.904 53.7692 50.4981C53.0217 51.0922 52.2814 51.6852 52.124 51.8156C51.9665 51.9463 50.3893 53.2133 48.6188 54.6307C43.9162 58.3956 40.8044 60.9075 39.5964 61.9129C39.0108 62.4004 37.212 63.8446 35.599 65.1225C33.9859 66.4008 31.2547 68.5771 29.5295 69.9598C27.8048 71.3421 25.6885 73.0204 24.8274 73.6892C23.9663 74.358 22.1261 75.8073 20.7383 76.9098C17.7045 79.3202 17.2057 79.6832 17.3134 79.4026C17.569 78.7364 23.5828 70.3107 32.1136 58.6666C35.7861 53.6539 36.0271 53.3034 35.8356 53.2601C35.6246 53.2125 30.3265 54.4879 26.3708 55.538C21.5009 56.8313 14.9084 58.6252 12.3951 59.3413C12.2255 59.3896 19.4498 48.2192 19.9461 47.6657C20.0025 47.6027 21.5232 47.1372 27.0144 45.5015C29.0999 44.8803 32.4798 43.8624 34.5258 43.2394C43.4866 40.5118 52.9279 37.6889 53.2261 37.6483C53.281 37.6406 54.1179 37.8849 55.086 38.1904ZM60.7588 52.6931C56.9085 63.2538 48.2012 70.333 37.7578 71.3934C36.4436 71.5271 35.9843 71.5146 36.1832 71.3509C36.2158 71.3242 37.3695 70.4103 38.7467 69.3203C40.1235 68.2307 42.1786 66.5949 43.3133 65.6855C44.4477 64.776 46.9266 62.7949 48.8217 61.2833C50.7167 59.7713 54.2307 56.9551 56.6309 55.0248C59.0307 53.0942 61.0382 51.5145 61.0917 51.5138C61.1455 51.5134 60.9954 52.0438 60.7588 52.6931ZM24.2963 61.169C24.2963 61.2074 23.2821 62.8465 22.0426 64.8112C20.8032 66.7762 19.7201 68.4951 19.6359 68.6317C19.393 69.024 15.5794 66.4037 14.0045 64.7625C13.4016 64.1339 13.1276 64.2951 16.427 63.3373C17.9616 62.8916 20.2794 62.2136 21.5778 61.8305C23.9791 61.1217 24.2963 61.0445 24.2963 61.169Z" fill="#0D626F"/>
<path fill-rule="evenodd" clip-rule="evenodd" d="M40.4721 4.25239C35.0422 6.59102 27.4787 9.82371 23.664 11.436C15.4732 14.898 14.9593 15.2482 15.4871 17.0088C15.9303 18.4889 16.6822 18.5757 19.3955 17.4608C23.1579 15.9144 27.2729 14.2032 31.3154 12.5033C33.5185 11.5767 36.8988 10.1599 38.8265 9.35525C46.2962 6.23757 48.5341 5.30028 49.8937 4.72048C50.6687 4.38974 51.3188 4.13958 51.3382 4.16448C51.3577 4.18902 51.343 7.30561 51.3053 11.0895L51.2375 17.9699L41.2765 21.9428C35.7978 24.1276 30.5103 26.2571 29.5269 26.6747C28.5431 27.0922 25.4207 28.3445 22.5876 29.4576C11.854 33.6748 11.8954 33.6572 11.4054 34.1455C10.5505 34.9978 10.7388 36.4683 11.7574 36.8903C12.235 37.0881 12.2163 37.0936 16.2211 35.5475C17.5979 35.0157 19.916 34.1436 21.3716 33.6096C22.8275 33.0752 26.0788 31.8566 28.5969 30.901C31.115 29.9458 34.2375 28.7727 35.5359 28.2939C36.8343 27.8156 39.4012 26.8497 41.2398 26.148C45.5105 24.5173 51.0705 22.4516 51.1873 22.4516C51.2372 22.4516 51.2606 24.8078 51.2401 27.6881L51.2024 32.9247L50.6302 33.1111C50.0501 33.3001 45.6061 34.7135 43.1188 35.5003C42.3712 35.7369 40.2143 36.4335 38.3258 37.0485C36.4373 37.6635 33.6364 38.5645 32.1021 39.0505C27.5263 40.5006 25.0712 41.2976 21.3027 42.5568C19.3369 43.2135 17.7169 43.7391 17.7023 43.7245C17.6876 43.7098 18.2224 42.8931 18.8904 41.9096C20.7969 39.1022 21.0555 38.3063 20.3511 37.4111C19.753 36.6504 19.5787 36.6672 16.8185 37.7473C15.4274 38.2916 13.5034 39.0297 12.5426 39.3875C9.10081 40.6687 8.27377 41.6433 9.21142 43.3113C9.78133 44.3252 10.1549 44.3805 11.9273 43.7135C13.4667 43.1341 13.4488 43.0707 12.2694 44.9262C10.8431 47.1696 10.7248 47.4527 10.9157 48.1611C11.1296 48.9563 11.9024 49.6353 12.5928 49.6353C13.0104 49.6353 13.0873 49.6789 13.0129 49.8731C12.8906 50.1917 9.21105 56.2374 8.99312 56.4776C8.6382 56.8692 7.02772 52.5919 6.49992 49.8566C4.82204 41.1621 7.14309 32.7053 13.3144 25.0268C15.4025 22.4289 15.5523 22.0205 14.8271 20.9023C13.7554 19.2493 12.1592 19.343 10.4487 21.1594C-0.0855985 32.3449 -1.82135 49.3599 6.31056 61.7252C8.93562 65.7168 13.0631 69.9289 15.9255 71.5375C16.2453 71.7174 16.5071 71.925 16.5071 71.9986C16.5071 72.1411 11.5991 79.6401 6.10033 87.8995C2.55008 93.232 2.45338 93.4309 3.14893 93.9781C3.87487 94.5491 4.16825 94.4165 6.92113 92.2749C8.50964 91.0395 18.2916 83.7185 26.6143 77.5359C28.6563 76.0192 29.7111 75.3222 29.9562 75.3273C30.1529 75.3313 30.9576 75.4236 31.7443 75.532C46.0328 77.5 60.7752 68.14 65.44 54.1379C66.4055 51.2389 65.7861 49.5053 63.7811 49.4947C62.8768 49.4899 62.6948 49.6672 69.1225 44.2922C73.2034 40.8797 73.2034 40.8837 68.9305 39.4966L66.3685 38.6648L66.9003 38.489C67.1926 38.3923 67.5951 38.1198 67.7944 37.8829L68.157 37.4521V32.0123C68.157 25.0869 68.3793 25.6623 65.2642 24.5312C62.5988 23.5639 61.7619 23.1991 62.0047 23.1112C62.1227 23.0687 63.1937 22.6827 64.3844 22.2542C66.8908 21.3517 67.242 21.1847 67.7277 20.6653L68.0852 20.2825L68.1291 14.3922C68.1756 8.17879 68.1386 7.73011 67.5339 7.1624C67.346 6.98585 64.5606 5.66325 61.3436 4.22345C58.1267 2.78365 54.7544 1.26216 53.8494 0.84242C52.4777 0.206211 52.0492 0.0725219 51.2741 0.0395577L50.3442 0L40.4721 4.25239ZM59.5723 8.46741L63.9361 10.2196L63.972 14.42C63.9914 16.7304 63.9592 18.8021 63.9002 19.024L63.7929 19.4277L62.5769 19.0009C61.908 18.7665 60.8136 18.3896 60.1448 18.1633C57.7615 17.3579 54.8288 16.3026 54.201 16.025L53.5633 15.743V14.1841C53.5633 13.3271 53.6055 11.1712 53.6575 9.39371L53.7512 6.16175L54.4801 6.43828C54.8808 6.59065 57.1722 7.50339 59.5723 8.46741ZM56.3103 11.0342C55.9774 11.3668 56.091 13.1146 56.4605 13.3505C56.8349 13.5893 61.1195 15.0115 61.4649 15.0115C62.0685 15.0115 62.2886 14.3083 62.0051 13.2875C61.8696 12.8004 61.7978 12.7546 60.2532 12.1675C59.3672 11.8312 58.2391 11.3998 57.7465 11.2089C56.729 10.8152 56.551 10.7936 56.3103 11.0342ZM35.4645 13.3747C21.1368 19.2877 20.3724 19.6174 20.0197 20.0364C19.1091 21.1187 19.6234 22.7376 20.8782 22.7376C21.3111 22.7376 25.4961 21.1055 29.6698 19.3093C30.811 18.8182 32.6779 18.0424 33.8192 17.5853C36.3531 16.5704 41.523 14.3889 42.0921 14.0944C43.3884 13.4241 42.9946 10.9961 41.5918 11.0093C41.3695 11.0112 38.6118 12.0759 35.4645 13.3747ZM47.447 15.028C46.8104 15.4357 46.7463 16.5209 47.3499 16.6722C47.7957 16.7843 48.8883 16.0653 48.9571 15.6148C49.0564 14.9632 48.1176 14.5984 47.447 15.028ZM43.7938 16.4202C43.2532 16.6568 43.2528 16.6576 43.2931 17.4439L43.3334 18.2307L43.8953 18.1856C44.9718 18.0992 45.2651 17.8322 45.2651 16.9392V16.1561L44.8 16.1701C44.5443 16.1774 44.0916 16.2902 43.7938 16.4202ZM40.293 17.7842L39.1129 18.2245V19.05C39.1129 20.0236 39.1917 20.0532 40.5025 19.5723C41.5834 19.1757 41.5669 19.1984 41.5167 18.2021L41.4735 17.3443L40.293 17.7842ZM63.4925 25.8121L64.0504 26.0498L63.9474 30.5798C63.8907 33.0712 63.8229 35.1311 63.7969 35.1575C63.7705 35.1835 63.3083 35.0666 62.7695 34.8978C62.2307 34.7286 60.7598 34.2799 59.5009 33.9008C58.2417 33.5213 56.4389 32.9598 55.4947 32.6525L53.778 32.094L53.7402 27.3028L53.7025 22.5116L58.3186 24.043C60.8572 24.8854 63.1856 25.6813 63.4925 25.8121ZM25.8071 23.465C25.4529 23.6258 23.489 24.4368 21.443 25.2675C16.9569 27.0885 16.4496 27.3475 16.157 27.9643C15.5717 29.1972 16.4903 30.6472 17.6894 30.3839C18.4242 30.2223 26.9106 26.7922 27.3509 26.4787C29.2295 25.1407 27.8871 22.5212 25.8071 23.465ZM56.3103 27.2014C56.0129 27.4988 56.0917 29.0891 56.4184 29.385C56.7001 29.6396 60.8096 30.8926 61.3641 30.8926C62.0549 30.8926 62.3131 29.3312 61.7143 28.7734C61.0821 28.1844 56.6242 26.8875 56.3103 27.2014ZM44.9787 28.7199C44.9787 28.7836 44.6601 28.9752 44.2703 29.1455C43.8806 29.3155 43.4946 29.581 43.4118 29.7352C43.2342 30.0674 43.2111 30.8926 43.3796 30.8926C43.5957 30.8926 44.9051 30.4249 45.086 30.2828C45.2996 30.1154 45.3318 28.6034 45.1219 28.6034C45.0432 28.6034 44.9787 28.6558 44.9787 28.7199ZM40.0429 30.5183C39.4132 30.7776 38.4957 31.1944 38.0038 31.4442L37.1098 31.8984V32.5558C37.1098 33.3426 36.9702 33.3539 39.6597 32.354L41.4735 31.6797L41.5164 30.8571C41.5676 29.8755 41.59 29.881 40.0429 30.5183ZM33.4614 33.1104C32.1937 33.7261 32.1725 33.7448 32.0915 34.3246C31.9805 35.1212 32.0549 35.1347 33.6097 34.596L34.9638 34.1271V33.2968C34.9638 32.3152 35.0711 32.3284 33.4614 33.1104ZM55.4522 37.4576C56.4199 37.7635 58.0809 38.2546 59.1431 38.5495C61.263 39.1373 64.9356 40.1655 65.3312 40.2816C65.7158 40.3944 65.6297 40.7116 65.1166 41.072C64.8605 41.2514 62.5911 43.0381 60.073 45.042C57.5549 47.0458 54.883 49.1713 54.1354 49.7654C53.3879 50.3595 52.6477 50.9524 52.4902 51.0828C52.3327 51.2136 50.7555 52.4805 48.985 53.898C44.2824 57.6629 41.1706 60.1747 39.9627 61.1801C39.377 61.6677 37.5782 63.1119 35.9652 64.3898C34.3521 65.668 31.6209 67.8444 29.8957 69.2271C28.171 70.6094 26.0547 72.2876 25.1936 72.9564C24.3325 73.6253 22.4923 75.0746 21.1045 76.177C18.0707 78.5875 17.5719 78.9504 17.6796 78.6699C17.9352 78.0036 23.949 69.578 32.4798 57.9339C36.1524 52.9211 36.3934 52.5706 36.2018 52.5274C35.9908 52.4798 30.6927 53.7551 26.737 54.8052C21.8671 56.0985 15.2746 57.8925 12.7613 58.6086C12.5917 58.6569 19.816 47.4864 20.3123 46.933C20.3687 46.87 21.8895 46.4045 27.3806 44.7687C29.4661 44.1475 32.846 43.1297 34.892 42.5066C43.8528 39.779 53.2941 36.9562 53.5923 36.9155C53.6472 36.9079 54.4841 37.1522 55.4522 37.4576ZM61.125 51.9604C57.2747 62.5211 48.5674 69.6003 38.124 70.6607C36.8098 70.7943 36.3505 70.7819 36.5494 70.6182C36.582 70.5914 37.7357 69.6776 39.1129 68.5876C40.4897 67.4979 42.5448 65.8622 43.6796 64.9527C44.8139 64.0433 47.2928 62.0621 49.1879 60.5505C51.083 59.0386 54.5969 56.2223 56.9971 54.2921C59.3969 52.3615 61.4044 50.7818 61.4579 50.781C61.5117 50.7807 61.3616 51.311 61.125 51.9604ZM24.6625 60.4363C24.6625 60.4747 23.6483 62.1138 22.4088 64.0784C21.1694 66.0435 20.0863 67.7624 20.0021 67.899C19.7592 68.2913 15.9456 65.671 14.3707 64.0297C13.7678 63.4012 13.4938 63.5624 16.7932 62.6046C18.3279 62.1588 20.6456 61.4809 21.944 61.0977C24.3453 60.389 24.6625 60.3117 24.6625 60.4363Z" fill="#29D53A"/>
</svg>
